<?xml version="1.0" encoding="utf-8"?>
<!-- Generator: Adobe Illustrator 22.0.1, SVG Export Plug-In . SVG Version: 6.00 Build 0)  -->
<svg version="1.1" id="Layer_1" xmlns="http://www.w3.org/2000/svg" xmlns:xlink="http://www.w3.org/1999/xlink" x="0px" y="0px"
	 viewBox="0 0 512 512" style="enable-background:new 0 0 512 512;" xml:space="preserve">
<style type="text/css">
	.st0{clip-path:url(#SVGID_2_);}
	.st1{clip-path:url(#SVGID_4_);fill:#123D66;}
	.st2{clip-path:url(#SVGID_6_);fill:#0061B0;}
	.st3{clip-path:url(#SVGID_6_);fill:#0D73BA;}
	.st4{clip-path:url(#SVGID_6_);fill:#2182C7;}
	.st5{clip-path:url(#SVGID_8_);fill:#FFFFFF;}
	.st6{clip-path:url(#SVGID_10_);fill:#FFFFFF;}
	.st7{clip-path:url(#SVGID_12_);fill:#123D66;}
	.st8{clip-path:url(#SVGID_2_);fill:#0061B0;}
	.st9{clip-path:url(#SVGID_2_);fill:#0D73BA;}
	.st10{clip-path:url(#SVGID_2_);fill:#2182C7;}
	.st11{clip-path:url(#SVGID_2_);fill:none;}
	.st12{fill:#808287;}
	.st13{fill:#ED4047;}
	.st14{fill:#0061B0;}
	.st15{fill:#FFFFFF;}
</style>
<g>
	<g>
		<defs>
			<rect id="SVGID_1_" x="-0.8" y="-2.7" width="513.3" height="515.2"/>
		</defs>
		<clipPath id="SVGID_2_">
			<use xlink:href="#SVGID_1_"  style="overflow:visible;"/>
		</clipPath>
		<g class="st0">
			<defs>
				<rect id="SVGID_3_" x="-2.2" y="-8" width="516.1" height="516.1"/>
			</defs>
			<clipPath id="SVGID_4_">
				<use xlink:href="#SVGID_3_"  style="overflow:visible;"/>
			</clipPath>
			<path class="st1" d="M272.6,454.7l10,10h0l-9.8-10C272.7,454.8,272.6,454.7,272.6,454.7"/>
		</g>
		<g class="st0">
			<defs>
				<path id="SVGID_5_" d="M57-8C24.3-8-2.2,18.5-2.2,51.2v397.6c0,32.7,26.5,59.2,59.2,59.2h397.6c32.7,0,59.2-26.5,59.2-59.2V51.2
					c0-32.7-26.5-59.2-59.2-59.2H57z"/>
			</defs>
			<clipPath id="SVGID_6_">
				<use xlink:href="#SVGID_5_"  style="overflow:visible;"/>
			</clipPath>
			<path class="st2" d="M606.3,250.1c0,193.5-156.9,350.4-350.4,350.4S-94.6,443.6-94.6,250.1S62.3-100.4,255.9-100.4
				S606.3,56.5,606.3,250.1"/>
			<path class="st3" d="M517.3,250.1c0,144.4-117,261.4-261.4,261.4c-144.4,0-261.4-117-261.4-261.4c0-144.4,117-261.4,261.4-261.4
				C400.2-11.3,517.3,105.7,517.3,250.1"/>
			<path class="st4" d="M440,250.1c0,101.7-82.4,184.1-184.1,184.1S71.8,351.7,71.8,250.1S154.2,66,255.9,66S440,148.4,440,250.1"/>
		</g>
		<g class="st0">
			<defs>
				<rect id="SVGID_7_" x="-2.2" y="-8" width="516.1" height="516.1"/>
			</defs>
			<clipPath id="SVGID_8_">
				<use xlink:href="#SVGID_7_"  style="overflow:visible;"/>
			</clipPath>
			<path class="st5" d="M405.1,85.3H107.5c-7,0-12.8,5.7-12.8,12.8v40.8v5.9v264.3c0,8.1,6.6,14.8,14.8,14.8h292.8
				c8.1,0,14.8-6.6,14.8-14.8V144.7v-5.9V97.3C417,90.7,411.7,85.3,405.1,85.3"/>
		</g>
		<g class="st0">
			<defs>
				<rect id="SVGID_9_" x="-2.2" y="-8" width="516.1" height="516.1"/>
			</defs>
			<clipPath id="SVGID_10_">
				<use xlink:href="#SVGID_9_"  style="overflow:visible;"/>
			</clipPath>
			<path class="st6" d="M191.5,202.3l-29.6-17.6c-0.8-0.5-1.8-0.5-2.6,0c-0.8,0.5-1.3,1.3-1.3,2.2v35.1c0,0.9,0.5,1.8,1.3,2.2
				c0.4,0.2,0.8,0.3,1.3,0.3c0.5,0,0.9-0.1,1.3-0.4l29.6-17.6c0.8-0.5,1.3-1.3,1.3-2.2C192.8,203.6,192.3,202.7,191.5,202.3"/>
		</g>
		<g class="st0">
			<defs>
				<rect id="SVGID_11_" x="-2.2" y="-8" width="516.1" height="516.1"/>
			</defs>
			<clipPath id="SVGID_12_">
				<use xlink:href="#SVGID_11_"  style="overflow:visible;"/>
			</clipPath>
			<path class="st7" d="M272.6,454.7l10,10h0l-9.8-10C272.7,454.8,272.6,454.7,272.6,454.7"/>
		</g>
		<path class="st8" d="M621.3,250.7c0,201.8-163.6,365.4-365.4,365.4s-365.4-163.6-365.4-365.4S54-114.7,255.9-114.7
			S621.3,48.9,621.3,250.7"/>
		<path class="st9" d="M517.3,250.1c0,144.4-117,261.4-261.4,261.4c-144.4,0-261.4-117-261.4-261.4c0-144.4,117-261.4,261.4-261.4
			C400.2-11.3,517.3,105.7,517.3,250.1"/>
		<path class="st10" d="M440,250.1c0,101.7-82.4,184.1-184.1,184.1S71.8,351.7,71.8,250.1S154.2,66,255.9,66S440,148.4,440,250.1"/>
		<path class="st11" d="M57-8C24.3-8-2.2,18.5-2.2,51.2v397.6c0,32.7,26.5,59.2,59.2,59.2h397.6c32.7,0,59.2-26.5,59.2-59.2V51.2
			c0-32.7-26.5-59.2-59.2-59.2H57z"/>
		<g class="st0">
			<defs>
				<path id="SVGID_13_" d="M0.4,508.1h510.9c1.4,0,2.6-1.2,2.6-2.6V-5.4c0-1.4-1.2-2.6-2.6-2.6H0.4C-1-8-2.2-6.8-2.2-5.4v510.9
					C-2.2,506.9-1,508.1,0.4,508.1z"/>
			</defs>
			<clipPath id="SVGID_14_">
				<use xlink:href="#SVGID_13_"  style="overflow:visible;"/>
			</clipPath>
		</g>
		<rect x="-2.2" y="-8" class="st11" width="516.1" height="516.1"/>
		<rect x="-1.5" y="-9" class="st11" width="514.7" height="514.7"/>
		<g class="st0">
			<polygon class="st12" points="282.6,469.8 284.2,471.4 282.6,469.8 			"/>
			<rect x="127.5" y="328.5" class="st13" width="252.1" height="25.7"/>
			<rect x="127.5" y="274.6" class="st13" width="252.1" height="25.7"/>
			<rect x="249.5" y="220.8" class="st13" width="130" height="25.7"/>
			<rect x="249.5" y="167" class="st13" width="130" height="25.7"/>
			<rect x="127.3" y="167" class="st14" width="96.2" height="85.1"/>
			<path class="st15" d="M405.1,90.3H107.5c-7,0-12.8,5.7-12.8,12.8v40.8v5.9v264.3c0,8.1,6.6,14.8,14.8,14.8h96.2l3.3,27.8
				l1.5,12.1l3.3-1.7c0,0,0,0,0,0l48.1-24.5l26.7-13.6h113.6c8.1,0,14.8-6.6,14.8-14.8V149.8v-5.9v-41.6
				C417,95.7,411.7,90.3,405.1,90.3z"/>
			<polygon class="st12" points="282.6,469.8 284.2,471.4 282.6,469.8 			"/>
			<rect x="127.5" y="328.5" class="st13" width="252.1" height="25.7"/>
			<rect x="127.5" y="274.6" class="st13" width="252.1" height="25.7"/>
			<rect x="249.5" y="220.8" class="st13" width="130" height="25.7"/>
			<rect x="249.5" y="167" class="st13" width="130" height="25.7"/>
			<rect x="127.3" y="167" class="st14" width="96.2" height="85.1"/>
			<path class="st15" d="M191.5,207.3l-29.6-17.6c-0.8-0.5-1.8-0.5-2.6,0c-0.8,0.5-1.3,1.3-1.3,2.2v35.1c0,0.9,0.5,1.8,1.3,2.2
				c0.4,0.2,0.8,0.3,1.3,0.3c0.5,0,0.9-0.1,1.3-0.4l29.6-17.6c0.8-0.5,1.3-1.3,1.3-2.2C192.8,208.6,192.3,207.8,191.5,207.3"/>
		</g>
	</g>
</g>
</svg>
