<?xml version="1.0" encoding="utf-8"?>
<!-- Generator: Adobe Illustrator 22.0.1, SVG Export Plug-In . SVG Version: 6.00 Build 0)  -->
<svg version="1.1" id="Layer_1" xmlns="http://www.w3.org/2000/svg" xmlns:xlink="http://www.w3.org/1999/xlink" x="0px" y="0px"
	 viewBox="0 0 1024 1024" style="enable-background:new 0 0 1024 1024;" xml:space="preserve">
<style type="text/css">
	.st0{clip-path:url(#SVGID_2_);}
	.st1{clip-path:url(#SVGID_4_);fill:#123D66;}
	.st2{clip-path:url(#SVGID_6_);fill:#0061B0;}
	.st3{clip-path:url(#SVGID_6_);fill:#0D73BA;}
	.st4{clip-path:url(#SVGID_6_);fill:#2182C7;}
	.st5{clip-path:url(#SVGID_8_);fill:#FFFFFF;}
	.st6{clip-path:url(#SVGID_10_);fill:#FFFFFF;}
	.st7{clip-path:url(#SVGID_12_);fill:#123D66;}
	.st8{clip-path:url(#SVGID_2_);fill:#0061B0;}
	.st9{clip-path:url(#SVGID_2_);fill:#0D73BA;}
	.st10{clip-path:url(#SVGID_2_);fill:#2182C7;}
	.st11{clip-path:url(#SVGID_2_);fill:none;}
	.st12{fill:#808287;}
	.st13{fill:#ED4047;}
	.st14{fill:#0061B0;}
	.st15{fill:#FFFFFF;}
</style>
<g>
	<g>
		<defs>
			<rect id="SVGID_1_" x="-0.8" y="-4.7" width="1025" height="1028.7"/>
		</defs>
		<clipPath id="SVGID_2_">
			<use xlink:href="#SVGID_1_"  style="overflow:visible;"/>
		</clipPath>
		<g class="st0">
			<defs>
				<rect id="SVGID_3_" x="-3.5" y="-15.3" width="1030.5" height="1030.5"/>
			</defs>
			<clipPath id="SVGID_4_">
				<use xlink:href="#SVGID_3_"  style="overflow:visible;"/>
			</clipPath>
			<path class="st1" d="M545.1,908.6l20,20h0l-19.7-19.9C545.3,908.7,545.2,908.7,545.1,908.6"/>
		</g>
		<g class="st0">
			<defs>
				<path id="SVGID_5_" d="M114.7-15.3C49.4-15.3-3.5,37.7-3.5,103v794c0,65.3,52.9,118.2,118.2,118.2h794
					c65.3,0,118.2-52.9,118.2-118.2V103c0-65.3-52.9-118.2-118.2-118.2H114.7z"/>
			</defs>
			<clipPath id="SVGID_6_">
				<use xlink:href="#SVGID_5_"  style="overflow:visible;"/>
			</clipPath>
			<path class="st2" d="M1211.5,500c0,386.5-313.3,699.7-699.7,699.7S-188,886.4-188,500s313.3-699.7,699.7-699.7
				S1211.5,113.5,1211.5,500"/>
			<path class="st3" d="M1033.7,500c0,288.3-233.7,522-522,522c-288.3,0-522-233.7-522-522c0-288.3,233.7-522,522-522
				C800-22,1033.7,211.7,1033.7,500"/>
			<path class="st4" d="M879.3,500c0,203-164.6,367.6-367.6,367.6S144.1,703,144.1,500s164.6-367.6,367.6-367.6
				S879.3,296.9,879.3,500"/>
		</g>
		<g class="st0">
			<defs>
				<rect id="SVGID_7_" x="-3.5" y="-15.3" width="1030.5" height="1030.5"/>
			</defs>
			<clipPath id="SVGID_8_">
				<use xlink:href="#SVGID_7_"  style="overflow:visible;"/>
			</clipPath>
			<path class="st5" d="M809.7,171H215.4c-14.1,0-25.5,11.4-25.5,25.5v81.4v11.8v527.8c0,16.3,13.2,29.5,29.5,29.5h584.7
				c16.3,0,29.5-13.2,29.5-29.5V289.7v-11.8v-83C833.5,181.7,822.8,171,809.7,171"/>
		</g>
		<g class="st0">
			<defs>
				<rect id="SVGID_9_" x="-3.5" y="-15.3" width="1030.5" height="1030.5"/>
			</defs>
			<clipPath id="SVGID_10_">
				<use xlink:href="#SVGID_9_"  style="overflow:visible;"/>
			</clipPath>
			<path class="st6" d="M383.3,404.6l-59.2-35.1c-1.6-0.9-3.6-1-5.2,0c-1.6,0.9-2.6,2.6-2.6,4.5v70.1c0,1.9,1,3.6,2.6,4.5
				c0.8,0.5,1.7,0.7,2.6,0.7c0.9,0,1.8-0.2,2.6-0.7l59.2-35c1.6-0.9,2.5-2.6,2.5-4.4C385.8,407.2,384.8,405.5,383.3,404.6"/>
		</g>
		<g class="st0">
			<defs>
				<rect id="SVGID_11_" x="-3.5" y="-15.3" width="1030.5" height="1030.5"/>
			</defs>
			<clipPath id="SVGID_12_">
				<use xlink:href="#SVGID_11_"  style="overflow:visible;"/>
			</clipPath>
			<path class="st7" d="M545.1,908.6l20,20h0l-19.7-19.9C545.3,908.7,545.2,908.7,545.1,908.6"/>
		</g>
		<path class="st8" d="M1241.4,501.3c0,403-326.7,729.7-729.7,729.7S-218,904.4-218,501.3s326.7-729.7,729.7-729.7
			S1241.4,98.3,1241.4,501.3"/>
		<path class="st9" d="M1033.7,500c0,288.3-233.7,522-522,522c-288.3,0-522-233.7-522-522c0-288.3,233.7-522,522-522
			C800-22,1033.7,211.7,1033.7,500"/>
		<path class="st10" d="M879.3,500c0,203-164.6,367.6-367.6,367.6S144.1,703,144.1,500s164.6-367.6,367.6-367.6
			S879.3,296.9,879.3,500"/>
		<path class="st11" d="M114.7-15.3C49.4-15.3-3.5,37.7-3.5,103v794c0,65.3,52.9,118.2,118.2,118.2h794
			c65.3,0,118.2-52.9,118.2-118.2V103c0-65.3-52.9-118.2-118.2-118.2H114.7z"/>
		<g class="st0">
			<defs>
				<path id="SVGID_13_" d="M1.7,1015.2h1020.1c2.9,0,5.2-2.3,5.2-5.2V-10.1c0-2.9-2.3-5.2-5.2-5.2H1.7c-2.9,0-5.2,2.3-5.2,5.2V1010
					C-3.5,1012.9-1.2,1015.2,1.7,1015.2z"/>
			</defs>
			<clipPath id="SVGID_14_">
				<use xlink:href="#SVGID_13_"  style="overflow:visible;"/>
			</clipPath>
		</g>
		<rect x="-3.5" y="-15.3" class="st11" width="1030.5" height="1030.5"/>
		<rect x="-2.1" y="-17.2" class="st11" width="1027.7" height="1027.7"/>
		<g class="st0">
			<polygon class="st12" points="565.1,938.7 568.2,941.9 565.1,938.7 			"/>
			<rect x="255.3" y="656.6" class="st13" width="503.3" height="51.3"/>
			<rect x="255.3" y="549.1" class="st13" width="503.3" height="51.3"/>
			<rect x="499" y="441.6" class="st13" width="259.6" height="51.3"/>
			<rect x="499" y="334.1" class="st13" width="259.6" height="51.3"/>
			<rect x="255" y="334.1" class="st14" width="192.2" height="169.9"/>
			<path class="st15" d="M809.7,181H215.4c-14.1,0-25.5,11.4-25.5,25.5v81.4v11.8v527.8c0,16.3,13.2,29.5,29.5,29.5h192.2l6.7,55.5
				l2.9,24.1l6.6-3.4c0,0,0,0,0,0l96.1-49l53.4-27.2h226.9c16.3,0,29.5-13.2,29.5-29.5V299.7v-11.8v-83
				C833.5,191.7,822.8,181,809.7,181z"/>
			<polygon class="st12" points="565.1,938.7 568.2,941.9 565.1,938.7 			"/>
			<rect x="255.3" y="656.6" class="st13" width="503.3" height="51.3"/>
			<rect x="255.3" y="549.1" class="st13" width="503.3" height="51.3"/>
			<rect x="499" y="441.6" class="st13" width="259.6" height="51.3"/>
			<rect x="499" y="334.1" class="st13" width="259.6" height="51.3"/>
			<rect x="255" y="334.1" class="st14" width="192.2" height="169.9"/>
			<path class="st15" d="M383.3,414.6l-59.2-35.1c-1.6-0.9-3.6-1-5.2,0c-1.6,0.9-2.6,2.6-2.6,4.5v70.1c0,1.9,1,3.6,2.6,4.5
				c0.8,0.5,1.7,0.7,2.6,0.7c0.9,0,1.8-0.2,2.6-0.7l59.2-35c1.6-0.9,2.5-2.6,2.5-4.4C385.8,417.2,384.8,415.5,383.3,414.6"/>
		</g>
	</g>
</g>
</svg>
