<?xml version="1.0" encoding="UTF-8" standalone="no"?>
<svg
   xmlns:dc="http://purl.org/dc/elements/1.1/"
   xmlns:cc="http://creativecommons.org/ns#"
   xmlns:rdf="http://www.w3.org/1999/02/22-rdf-syntax-ns#"
   xmlns:svg="http://www.w3.org/2000/svg"
   xmlns="http://www.w3.org/2000/svg"
   xmlns:sodipodi="http://sodipodi.sourceforge.net/DTD/sodipodi-0.dtd"
   xmlns:inkscape="http://www.inkscape.org/namespaces/inkscape"
   id="Layer_1"
   data-name="Layer 1"
   viewBox="0 0 25 25"
   version="1.1"
   sodipodi:docname="back.svg"
   inkscape:version="0.92.1 r15371">
  <metadata
     id="metadata13">
    <rdf:RDF>
      <cc:Work
         rdf:about="">
        <dc:format>image/svg+xml</dc:format>
        <dc:type
           rdf:resource="http://purl.org/dc/dcmitype/StillImage" />
      </cc:Work>
    </rdf:RDF>
  </metadata>
  <sodipodi:namedview
     pagecolor="#ffffff"
     bordercolor="#666666"
     borderopacity="1"
     objecttolerance="10"
     gridtolerance="10"
     guidetolerance="10"
     inkscape:pageopacity="0"
     inkscape:pageshadow="2"
     inkscape:window-width="3000"
     inkscape:window-height="1933"
     id="namedview11"
     showgrid="false"
     inkscape:zoom="9.44"
     inkscape:cx="12.5"
     inkscape:cy="4.0254237"
     inkscape:window-x="2391"
     inkscape:window-y="-9"
     inkscape:window-maximized="1"
     inkscape:current-layer="Layer_1" />
  <defs
     id="defs4">
    <style
       id="style2">.cls-1{fill:#b4bcc2;}</style>
  </defs>
  <title
     id="title6">SVGs for VOA</title>
  <path
     class="cls-1"
     d="M 12.5,0.69 A 11.81,11.81 0 1 1 0.69,12.5 11.81,11.81 0 0 1 12.5,0.69 Z m -2.08,18.53 a 1.3,1.3 0 0 0 1.84,0 l 5.94,-5.94 a 1.3,1.3 0 0 0 0,-1.84 L 12.29,5.52 a 1.3010765,1.3010765 0 1 0 -1.84,1.84 l 5,5 -5,5 a 1.33,1.33 0 0 0 -0.38,0.92 1.31,1.31 0 0 0 0.35,0.94 z"
     id="path8"
     inkscape:connector-curvature="0"
     style="fill:#b4bcc2" />
</svg>
