<svg id="Layer_1" data-name="Layer 1" xmlns="http://www.w3.org/2000/svg" xmlns:xlink="http://www.w3.org/1999/xlink" viewBox="0 0 25 25"><defs><style>.cls-1{fill:none;}.cls-2{fill:#b4bcc2;fill-rule:evenodd;}.cls-3{clip-path:url(#clip-path);}</style><clipPath id="clip-path"><rect class="cls-1" x="-300" y="-14.52" width="28.45" height="27.22"/></clipPath></defs><title>SVGs for VOA</title><path class="cls-2" d="M12.5,6.89A5.71,5.71,0,0,0,6.69,12.5a5.72,5.72,0,0,0,5.81,5.61,5.72,5.72,0,0,0,5.81-5.61A5.72,5.72,0,0,0,12.5,6.89ZM15.43,11l-4,3.87L9.59,13.05a.63.63,0,0,1,0-.91.69.69,0,0,1,.93,0l.91.88,3.07-3a.67.67,0,0,1,.93,0A.62.62,0,0,1,15.43,11Z"/><path class="cls-2" d="M24.27,12.73a2.05,2.05,0,0,0-.36-1.47l-.54-.71a2.68,2.68,0,0,1-.45-1.62l.1-.87a2.16,2.16,0,0,0-1.28-2.14l-.83-.35a2.83,2.83,0,0,1-1.23-1.19l-.36-.8A2.26,2.26,0,0,0,17.1,2.34l-.9.1A2.86,2.86,0,0,1,14.52,2l-.73-.52a2.37,2.37,0,0,0-2.56,0L10.5,2a2.86,2.86,0,0,1-1.68.43l-.9-.1A2.26,2.26,0,0,0,5.7,3.58l-.36.8A2.83,2.83,0,0,1,4.11,5.57l-.83.35A2.16,2.16,0,0,0,2,8.06l.1.87a2.68,2.68,0,0,1-.45,1.62l-.54.71a2.12,2.12,0,0,0,0,2.47l.54.71a2.63,2.63,0,0,1,.45,1.61l-.1.88a2.18,2.18,0,0,0,1.28,2.14l.83.35A2.81,2.81,0,0,1,5.34,20.6l.36.81a2.25,2.25,0,0,0,2.22,1.23l.9-.1A2.94,2.94,0,0,1,10.5,23l.73.52a2.3,2.3,0,0,0,2.56,0l.73-.52a2.94,2.94,0,0,1,1.68-.44l.9.1a2.27,2.27,0,0,0,2.22-1.23l.36-.81a2.81,2.81,0,0,1,1.23-1.18l.83-.35A2.18,2.18,0,0,0,23,16.93l-.1-.88a2.63,2.63,0,0,1,.45-1.61l.54-.71a2,2,0,0,0,.36-1l0,0ZM12.5,19.24a6.87,6.87,0,0,1-7-6.74,6.87,6.87,0,0,1,7-6.74,6.87,6.87,0,0,1,7,6.74A6.87,6.87,0,0,1,12.5,19.24Z"/></svg>